<?xml version="1.0" encoding="utf-8"?>
<!-- Generator: Adobe Illustrator 19.1.0, SVG Export Plug-In . SVG Version: 6.00 Build 0)  -->
<svg version="1.1" id="Layer_1" xmlns="http://www.w3.org/2000/svg" xmlns:xlink="http://www.w3.org/1999/xlink" x="0px" y="0px"
	 viewBox="0 0 200 111" style="enable-background:new 0 0 200 111;" xml:space="preserve">
<style type="text/css">
	.st0{fill:#12AC80;}
	.st1{fill:#2665AD;}
</style>
<g>
	<path class="st0" d="M108.9,44.6h20.6c0.9-1.9,1.6-5.8,2.1-5.8h-17.1C113.1,40.7,111.2,44.6,108.9,44.6z"/>
	<path class="st1" d="M99.5,46.5H85.8v17.4h11.5c11.3,0,24-7.7,30.6-17.4H99.5z"/>
	<path class="st1" d="M117.3,29.4c0,1.9-0.3,3.5-0.9,5.4h15.9c0.1,0-0.1-2.1-0.1-2.9v-4.5C132.3,9.4,120.8,0,102.7,0H85.8v11.6h13.7
		C109.4,11.6,117.3,19.6,117.3,29.4z"/>
	<rect x="66.5" y="13.6" class="st1" width="17.4" height="21.3"/>
	<rect x="66.5" y="38.7" class="st0" width="17.4" height="5.8"/>
	<path class="st1" d="M0,79.5c3.4,0,6.9,0,10.3,0.1c1.1,0,2.2,0.1,3.3,0.2c6,0.6,10.2,5.8,9.9,12.3c-0.2,4.8-2.3,8.5-6.7,10.5
		c-2.3,1-4.9,1.1-7.4,1c-3.1,0-6.2,0-9.3,0c0-0.1,0-0.3,0-0.4c1.4-0.9,1.5-2.3,1.5-3.7c0-5.1,0-10.2,0-15.3c0-0.8,0-1.6-0.2-2.3
		c-0.3-0.7-0.8-1.3-1.3-2C0,79.7,0,79.6,0,79.5z M8.3,99.4c3.8,0.9,6.1-0.1,7.3-3.4c1.2-3.2,1.1-6.4-0.2-9.4
		c-1.2-2.9-4.1-3.9-7.1-2.5C8.3,89.1,8.3,94.2,8.3,99.4z"/>
	<path class="st1" d="M180.2,111c0.9-1.1,1.2-2.3,1.2-3.8c-0.1-5.4,0-10.9-0.1-16.3c0-1.3-0.4-2.6-0.6-4c2-0.1,4.3-0.2,6.7-0.3
		c0.1,0.3,0.2,0.8,0.2,1.2c0.1,0,0.3,0.1,0.4,0c5.1-3.1,9.9-1.3,11.7,4.4c0.1,0.2,0.2,0.3,0.3,0.5c0,1.4,0,2.9,0,4.3
		c-0.1,0.2-0.3,0.4-0.3,0.7c-1,4.2-4.3,7.2-10,6.1c-0.4-1-0.8-2-1.2-3.1c3.6-0.2,4.3-1,4.7-4.4c0-0.1,0.1-0.3,0.1-0.4
		c-0.3-1.5-0.4-3-0.8-4.3c-0.3-1-1.3-1.6-2.5-1.4c-1.2,0.2-1.8,0.9-2,2.1c-0.1,0.8-0.3,1.7-0.3,2.5c0,3.9,0,7.8,0,11.7
		c0,1.6,0.1,3.2,1.1,4.6C185.9,111,183,111,180.2,111z"/>
	<path class="st1" d="M116.2,99.9c-0.1-2.8,0.7-5.7-1-8.6c2.4,0,4.7,0,7.2,0c0,3.8,0,7.6,0,11.6c-5.2,1.3-10.4,2-15.4-0.8
		c-1.5-0.8-2.9-2.1-3.8-3.5c-5-6.9-1.2-17,7-19.2c2.8-0.7,6.8-0.7,9.9,0.2c0,1.5,0,3.1,0,4.8c-1.2-0.5-2.3-1-3.5-1.3
		c-4.5-1.2-8.2,1.5-8.5,6.1c-0.2,2.5,0,5.1,1.2,7.4C110.8,99.5,112.9,100.5,116.2,99.9z"/>
	<path class="st1" d="M58.6,87c-0.1-2.4,0.5-4.9-1-7.3c2.5-0.1,4.9-0.2,7.4-0.3c0,0.6,0,1.3,0,1.9c0,5.3,0,10.6,0,16
		c0,2.1-0.1,4.3,1.5,6.2c-2.7,0-5.1,0-7.7,0c0-0.5-0.1-1-0.1-1.5c0-2.9,0-5.7,0-8.6c0-2-0.7-3.1-2.1-3.3c-1.4-0.2-2.7,0.8-3,2.7
		c-0.2,1.4-0.2,2.8,0,4.2c0.3,2.2,1.9,3.3,4,3.6c-0.1,0.3-0.1,0.5-0.2,0.6c-1.3,2.6-2.3,3.1-5.1,2.2c-0.5-0.1-1-0.4-1.4-0.6
		c-3.3-1.7-5-5.9-4.1-10.1c0.8-3.8,3.8-6.4,7.4-6.5C55.6,86.2,56.9,86.7,58.6,87z"/>
	<path class="st1" d="M79.6,100.5c-0.2,0.4-0.3,0.7-0.4,0.9c-1.3,2.4-2.3,2.8-5,2c-2.2-0.7-3.9-2.1-4.8-4.2
		c-1.6-3.7-1.2-7.2,1.4-10.4c1.9-2.3,5.2-3.1,8.1-2.2c0.5,0.2,0.9,0.4,1.7,0.7c-0.1-2.7,0.6-5-1.2-7.6c2.6,0,5-0.2,7.5-0.2
		c0,0.3,0,0.9,0,1.4c0,5.7,0,11.4,0,17.1c0,1.8,0.1,3.6,1.7,5.5c-2.9,0.1-5.3,0.1-8,0c0-1.1,0-2,0-3c0-2.6,0-5.2,0-7.8
		c0-1.4-0.7-2.3-1.9-2.6c-1.1-0.3-2.2,0.4-2.8,1.6C75,93.8,75,95.9,75.8,98C76.4,99.6,77.7,100.3,79.6,100.5z"/>
	<path class="st1" d="M169.9,86.8c1.3,0,2.5,0,3.7,0c1.1-0.1,2.3-0.2,3.6-0.3c0,1.2,0,2.2,0,3.3c0,3-0.1,6,0,9c0,1.5,0.3,3,0.5,4.7
		c-2,0-4.3,0-6.7,0c-0.1-0.4-0.2-0.7-0.4-1.2c-0.2,0.1-0.4,0.2-0.5,0.3c-1.4,1.3-3.1,1.6-4.9,1.5c-3.1-0.2-4.9-2-4.9-5.1
		c0-2.4,0-4.8,0-7.2c0-1.6,0.1-3.2-1-4.7c2.5-0.1,4.8-0.2,7.3-0.3c0,3,0,6.1,0,9.1c0,0.9,0.1,1.8,0.2,2.7c0.3,1.3,0.9,1.8,1.9,1.7
		c1.1,0,2-0.8,2-2c0.1-3,0.1-6.1,0-9.1C170.7,88.4,170.3,87.7,169.9,86.8z"/>
	<path class="st1" d="M34.5,104c-3.5,0-6.4-1.2-8.1-4.3c-1.7-3.2-1.5-6.5,0.5-9.6c2.1-3.2,5.5-4,9-3.7c6.1,0.4,9.7,5.9,7.8,11.8
		c-1.1,3.4-4.2,5.7-8.1,5.9C35.3,104,34.9,104,34.5,104z M31.4,95.2c0,1.4,0.4,2.6,1.1,3.9c0.6,1,1.5,1.5,2.7,1.4
		c1.2-0.1,2-0.7,2.3-1.8c0.9-2.4,0.7-4.9-0.3-7.2c-0.5-1.2-1.5-1.7-2.8-1.6c-1.4,0.1-2.2,0.8-2.5,2C31.6,92.8,31.4,93.8,31.4,95.2z"
		/>
	<path class="st1" d="M147.2,104c-3.5,0-6.4-1.2-8.1-4.3c-1.7-3.2-1.5-6.5,0.5-9.6c2.1-3.2,5.5-4,9-3.7c6.1,0.4,9.7,5.9,7.8,11.8
		c-1.1,3.4-4.2,5.7-8.1,5.9C148,104,147.6,104,147.2,104z M144.1,95.2c0,1.4,0.4,2.6,1.1,3.9c0.6,1,1.5,1.5,2.7,1.4
		c1.2-0.1,2-0.7,2.3-1.8c0.9-2.4,0.7-4.9-0.3-7.2c-0.5-1.2-1.5-1.7-2.8-1.6c-1.4,0.1-2.2,0.8-2.5,2
		C144.4,92.8,144.1,93.8,144.1,95.2z"/>
	<path class="st1" d="M124.3,86.9c2.3-0.1,4.6-0.3,7-0.4c0.1,0.3,0.1,0.9,0.2,1.4c1.9-1.7,2.8-1.9,5.1-1.4c0,0.7,0,1.3,0,2
		c0,0.6-0.1,1.3-0.1,2c-0.7,0-1.4,0-2,0c-2,0.1-3,1.2-3.1,3.2c0,1.6,0,3.1,0,4.7c0,0.8-0.1,1.7,0.1,2.5c0.1,0.8,0.5,1.5,0.9,2.4
		c-2.7,0-5.4,0-8.1,0C125.5,100.6,125.5,89.6,124.3,86.9z"/>
</g>
</svg>
